{
  "accessors": [
    {
      "bufferView": 2,
      "componentType": 5126,
      "count": 648,
      "max": [
        1.0,
        2.3672115802764893,
        1.0
      ],
      "min": [
        -1.0,
        -17.52672576904297,
        -33.86193084716797
      ],
      "type": "VEC3"
    },
    {
      "bufferView": 2,
      "byteOffset": 7776,
      "componentType": 5126,
      "count": 648,
      "max": [
        1.0,
        1.0,
        1.0
      ],
      "min": [
        -1.0,
        -1.0,
        -1.0
      ],
      "type": "VEC3"
    },
    {
      "bufferView": 1,
      "componentType": 5126,
      "count": 648,
      "max": [
        0.7500000596046448,
        0.875
      ],
      "min": [
        0.0,
        0.0
      ],
      "type": "VEC2"
    },
    {
      "bufferView": 0,
      "componentType": 5125,
      "count": 1116,
      "type": "SCALAR"
    },
    {
      "bufferView": 2,
      "byteOffset": 15552,
      "componentType": 5126,
      "count": 142,
      "max": [
        1.2125643491744995,
        -2.0984606742858887,
        -19.939315795898438
      ],
      "min": [
        -1.2125643491744995,
        -16.604639053344727,
        -32.10575866699219
      ],
      "type": "VEC3"
    },
    {
      "bufferView": 2,
      "byteOffset": 17256,
      "componentType": 5126,
      "count": 142,
      "max": [
        1.0,
        0.5794655084609985,
        0.5389100909233093
      ],
      "min": [
        -1.0,
        -0.429389625787735,
        -0.3443430960178375
      ],
      "type": "VEC3"
    },
    {
      "bufferView": 1,
      "byteOffset": 5184,
      "componentType": 5126,
      "count": 142,
      "max": [
        0.3750000596046448,
        0.606966495513916
      ],
      "min": [
        0.3749999701976776,
        0.5110070109367371
      ],
      "type": "VEC2"
    },
    {
      "bufferView": 0,
      "byteOffset": 4464,
      "componentType": 5125,
      "count": 222,
      "type": "SCALAR"
    },
    {
      "bufferView": 2,
      "byteOffset": 18960,
      "componentType": 5126,
      "count": 470,
      "max": [
        1.0,
        1.753490686416626,
        1.0909628868103027
      ],
      "min": [
        -1.0,
        -1.0,
        -1.0
      ],
      "type": "VEC3"
    },
    {
      "bufferView": 2,
      "byteOffset": 24600,
      "componentType": 5126,
      "count": 470,
      "max": [
        1.0,
        1.0,
        1.0
      ],
      "min": [
        -1.0,
        -1.0,
        -1.0
      ],
      "type": "VEC3"
    },
    {
      "bufferView": 1,
      "byteOffset": 6320,
      "componentType": 5126,
      "count": 470,
      "max": [
        0.75,
        0.875
      ],
      "min": [
        0.0,
        0.0
      ],
      "type": "VEC2"
    },
    {
      "bufferView": 0,
      "byteOffset": 5352,
      "componentType": 5125,
      "count": 1224,
      "type": "SCALAR"
    },
    {
      "bufferView": 2,
      "byteOffset": 30240,
      "componentType": 5126,
      "count": 652,
      "max": [
        1.1315977573394775,
        1.753490686416626,
        1.0
      ],
      "min": [
        -1.1315977573394775,
        -1.0037472248077393,
        -0.9501867890357971
      ],
      "type": "VEC3"
    },
    {
      "bufferView": 2,
      "byteOffset": 38064,
      "componentType": 5126,
      "count": 652,
      "max": [
        1.0,
        1.0,
        1.0
      ],
      "min": [
        -1.0,
        -0.9997367858886719,
        -1.0
      ],
      "type": "VEC3"
    },
    {
      "bufferView": 1,
      "byteOffset": 10080,
      "componentType": 5126,
      "count": 652,
      "max": [
        0.75,
        0.75
      ],
      "min": [
        0.3749999701976776,
        0.506226658821106
      ],
      "type": "VEC2"
    },
    {
      "bufferView": 0,
      "byteOffset": 10248,
      "componentType": 5125,
      "count": 1428,
      "type": "SCALAR"
    },
    {
      "bufferView": 2,
      "byteOffset": 45888,
      "componentType": 5126,
      "count": 44,
      "max": [
        1.0,
        2.6345114707946777,
        1.0
      ],
      "min": [
        -1.0,
        -1.0,
        -1.614378809928894
      ],
      "type": "VEC3"
    },
    {
      "bufferView": 2,
      "byteOffset": 46416,
      "componentType": 5126,
      "count": 44,
      "max": [
        1.0,
        1.0,
        1.0
      ],
      "min": [
        -1.0,
        -1.0,
        -0.9946146607398987
      ],
      "type": "VEC3"
    },
    {
      "bufferView": 1,
      "byteOffset": 15296,
      "componentType": 5126,
      "count": 44,
      "max": [
        0.875,
        1.0
      ],
      "min": [
        0.125,
        0.0
      ],
      "type": "VEC2"
    },
    {
      "bufferView": 0,
      "byteOffset": 15960,
      "componentType": 5125,
      "count": 84,
      "type": "SCALAR"
    },
    {
      "bufferView": 2,
      "byteOffset": 46944,
      "componentType": 5126,
      "count": 72,
      "max": [
        1.0,
        1.0,
        1.0110933780670166
      ],
      "min": [
        -1.0,
        -3.9719321727752686,
        -1.0
      ],
      "type": "VEC3"
    },
    {
      "bufferView": 2,
      "byteOffset": 47808,
      "componentType": 5126,
      "count": 72,
      "max": [
        1.0,
        1.0,
        1.0
      ],
      "min": [
        -1.0,
        -0.958805501461029,
        -1.0
      ],
      "type": "VEC3"
    },
    {
      "bufferView": 1,
      "byteOffset": 15648,
      "componentType": 5126,
      "count": 72,
      "max": [
        0.875,
        1.0
      ],
      "min": [
        0.125,
        0.0
      ],
      "type": "VEC2"
    },
    {
      "bufferView": 0,
      "byteOffset": 16296,
      "componentType": 5125,
      "count": 108,
      "type": "SCALAR"
    },
    {
      "bufferView": 2,
      "byteOffset": 48672,
      "componentType": 5126,
      "count": 714,
      "max": [
        0.8299411535263062,
        0.8781590461730957,
        0.833333432674408
      ],
      "min": [
        -0.8299411535263062,
        -1.0668590068817139,
        -0.8333333730697632
      ],
      "type": "VEC3"
    },
    {
      "bufferView": 2,
      "byteOffset": 57240,
      "componentType": 5126,
      "count": 714,
      "max": [
        1.0,
        1.0,
        0.9639294147491455
      ],
      "min": [
        -1.0,
        -1.0,
        -0.9639280438423157
      ],
      "type": "VEC3"
    },
    {
      "bufferView": 1,
      "byteOffset": 16224,
      "componentType": 5126,
      "count": 714,
      "max": [
        1.0000001192092896,
        1.0000001192092896
      ],
      "min": [
        -8.940698137394065e-08,
        0.010000006295740604
      ],
      "type": "VEC2"
    },
    {
      "bufferView": 0,
      "byteOffset": 16728,
      "componentType": 5125,
      "count": 1800,
      "type": "SCALAR"
    },
    {
      "bufferView": 2,
      "byteOffset": 65808,
      "componentType": 5126,
      "count": 108,
      "max": [
        0.8660253882408142,
        1.0,
        1.0
      ],
      "min": [
        -0.8660253882408142,
        -1.7922476530075073,
        -1.0
      ],
      "type": "VEC3"
    },
    {
      "bufferView": 2,
      "byteOffset": 67104,
      "componentType": 5126,
      "count": 108,
      "max": [
        1.0,
        1.0,
        0.8660253882408142
      ],
      "min": [
        -1.0,
        -1.0,
        -0.8660253882408142
      ],
      "type": "VEC3"
    },
    {
      "bufferView": 1,
      "byteOffset": 21936,
      "componentType": 5126,
      "count": 108,
      "max": [
        1.0,
        1.0
      ],
      "min": [
        -8.940696716308594e-08,
        0.01000000536441803
      ],
      "type": "VEC2"
    },
    {
      "bufferView": 0,
      "byteOffset": 23928,
      "componentType": 5125,
      "count": 168,
      "type": "SCALAR"
    }
  ],
  "asset": {
    "extras": {
      "author": "captain_tronix (https://sketchfab.com/captain_tronix)",
      "license": "CC-BY-SA-4.0 (http://creativecommons.org/licenses/by-sa/4.0/)",
      "source": "https://sketchfab.com/3d-models/a1-pdw-blend-a8a0229c7f7249fc9093824065e01700",
      "title": "A1 PDW blend"
    },
    "generator": "Sketchfab-15.10.0",
    "version": "2.0"
  },
  "bufferViews": [
    {
      "buffer": 0,
      "byteLength": 24600,
      "name": "floatBufferViews",
      "target": 34963
    },
    {
      "buffer": 0,
      "byteLength": 22800,
      "byteOffset": 24600,
      "byteStride": 8,
      "name": "floatBufferViews",
      "target": 34962
    },
    {
      "buffer": 0,
      "byteLength": 68400,
      "byteOffset": 47400,
      "byteStride": 12,
      "name": "floatBufferViews",
      "target": 34962
    }
  ],
  "buffers": [
    {
      "byteLength": 115800,
      "uri": "scene.bin"
    }
  ],
  "extensionsUsed": [
    "KHR_materials_specular"
  ],
  "materials": [
    {
      "doubleSided": true,
      "name": "Secondary_Color",
      "pbrMetallicRoughness": {
        "baseColorFactor": [
          0.08515277748376329,
          0.07850868527525512,
          0.06913196685295327,
          1.0
        ]
      }
    },
    {
      "doubleSided": true,
      "name": "Grip",
      "pbrMetallicRoughness": {
        "baseColorFactor": [
          0.04489504918001053,
          0.03896215161782896,
          0.03896215161782896,
          1.0
        ],
        "metallicFactor": 0.0,
        "roughnessFactor": 0.8640026331508819
      }
    },
    {
      "doubleSided": true,
      "extensions": {
        "KHR_materials_specular": {
          "specularColorFactor": [
            1.0,
            1.0,
            1.0
          ],
          "specularFactor": 0.5226682595604101
        }
      },
      "name": "Primary_Collor",
      "pbrMetallicRoughness": {
        "baseColorFactor": [
          0.0648033,
          0.066626,
          0.0703601,
          1.0
        ],
        "metallicFactor": 0.6689544196706123,
        "roughnessFactor": 0.7577135473174775
      }
    },
    {
      "doubleSided": true,
      "name": "Trim",
      "pbrMetallicRoughness": {
        "baseColorFactor": [
          0.8,
          0.0477018,
          0.0,
          1.0
        ],
        "metallicFactor": 0.0
      }
    },
    {
      "doubleSided": true,
      "name": "Material.003",
      "pbrMetallicRoughness": {
        "baseColorFactor": [
          0.7999999999999999,
          0.0,
          0.003575439999999976,
          1.0
        ],
        "metallicFactor": 0.0,
        "roughnessFactor": 0.5
      }
    },
    {
      "doubleSided": true,
      "name": "Material.004",
      "pbrMetallicRoughness": {
        "baseColorFactor": [
          0.0950453,
          0.0950453,
          0.0950453,
          1.0
        ]
      }
    },
    {
      "doubleSided": true,
      "name": "Material.001",
      "pbrMetallicRoughness": {
        "baseColorFactor": [
          0.0159946,
          0.0159946,
          0.0159946,
          1.0
        ],
        "metallicFactor": 0.0,
        "roughnessFactor": 0.5
      }
    },
    {
      "doubleSided": true,
      "name": "Material.002",
      "pbrMetallicRoughness": {
        "baseColorFactor": [
          0.0549523,
          0.0,
          0.000633181,
          1.0
        ],
        "metallicFactor": 0.0,
        "roughnessFactor": 0.5
      }
    }
  ],
  "meshes": [
    {
      "name": "Object_0",
      "primitives": [
        {
          "attributes": {
            "NORMAL": 1,
            "POSITION": 0,
            "TEXCOORD_0": 2
          },
          "indices": 3,
          "material": 0,
          "mode": 4
        }
      ]
    },
    {
      "name": "Object_1",
      "primitives": [
        {
          "attributes": {
            "NORMAL": 5,
            "POSITION": 4,
            "TEXCOORD_0": 6
          },
          "indices": 7,
          "material": 1,
          "mode": 4
        }
      ]
    },
    {
      "name": "Object_2",
      "primitives": [
        {
          "attributes": {
            "NORMAL": 9,
            "POSITION": 8,
            "TEXCOORD_0": 10
          },
          "indices": 11,
          "material": 2,
          "mode": 4
        }
      ]
    },
    {
      "name": "Object_3",
      "primitives": [
        {
          "attributes": {
            "NORMAL": 13,
            "POSITION": 12,
            "TEXCOORD_0": 14
          },
          "indices": 15,
          "material": 3,
          "mode": 4
        }
      ]
    },
    {
      "name": "Object_4",
      "primitives": [
        {
          "attributes": {
            "NORMAL": 17,
            "POSITION": 16,
            "TEXCOORD_0": 18
          },
          "indices": 19,
          "material": 4,
          "mode": 4
        }
      ]
    },
    {
      "name": "Object_5",
      "primitives": [
        {
          "attributes": {
            "NORMAL": 21,
            "POSITION": 20,
            "TEXCOORD_0": 22
          },
          "indices": 23,
          "material": 5,
          "mode": 4
        }
      ]
    },
    {
      "name": "Object_6",
      "primitives": [
        {
          "attributes": {
            "NORMAL": 25,
            "POSITION": 24,
            "TEXCOORD_0": 26
          },
          "indices": 27,
          "material": 6,
          "mode": 4
        }
      ]
    },
    {
      "name": "Object_7",
      "primitives": [
        {
          "attributes": {
            "NORMAL": 29,
            "POSITION": 28,
            "TEXCOORD_0": 30
          },
          "indices": 31,
          "material": 7,
          "mode": 4
        }
      ]
    }
  ],
  "nodes": [
    {
      "children": [
        1
      ],
      "matrix": [
        1.0,
        0.0,
        0.0,
        0.0,
        0.0,
        2.220446049250313e-16,
        -1.0,
        0.0,
        0.0,
        1.0,
        2.220446049250313e-16,
        0.0,
        0.0,
        0.0,
        0.0,
        1.0
      ],
      "name": "Sketchfab_model"
    },
    {
      "children": [
        2
      ],
      "name": "root"
    },
    {
      "children": [
        3,
        6,
        9,
        11,
        13,
        15
      ],
      "matrix": [
        1.0,
        0.0,
        0.0,
        0.0,
        0.0,
        2.220446049250313e-16,
        1.0,
        0.0,
        0.0,
        -1.0,
        2.220446049250313e-16,
        0.0,
        0.0,
        0.0,
        0.0,
        1.0
      ],
      "name": "GLTF_SceneRootNode"
    },
    {
      "children": [
        4,
        5
      ],
      "matrix": [
        0.03537653386592865,
        0.0,
        0.0,
        0.0,
        0.0,
        0.014546751044690609,
        0.0,
        0.0,
        0.0,
        0.0,
        0.014546751044690609,
        0.0,
        0.0,
        0.09331759065389633,
        0.2339330017566681,
        1.0
      ],
      "name": "Bodt_2"
    },
    {
      "mesh": 0,
      "name": "Object_4"
    },
    {
      "mesh": 1,
      "name": "Object_5"
    },
    {
      "children": [
        7,
        8
      ],
      "matrix": [
        0.03910035640001297,
        0.0,
        0.0,
        0.0,
        0.0,
        0.03685574606060982,
        0.0,
        0.0,
        0.0,
        0.0,
        0.24223479628562927,
        0.0,
        0.0,
        0.133955717086792,
        0.013059258460998535,
        1.0
      ],
      "name": "slide_3"
    },
    {
      "mesh": 2,
      "name": "Object_7"
    },
    {
      "mesh": 3,
      "name": "Object_8"
    },
    {
      "children": [
        10
      ],
      "matrix": [
        -0.005811817012727261,
        -0.0,
        0.0,
        -0.0,
        -0.0,
        -0.01991560310125351,
        0.0,
        -0.0,
        -0.0,
        -0.0,
        -0.01991560310125351,
        -0.0,
        0.0,
        0.04860156029462814,
        -0.04072563350200653,
        1.0
      ],
      "name": "trigger_4"
    },
    {
      "mesh": 4,
      "name": "Object_10"
    },
    {
      "children": [
        12
      ],
      "matrix": [
        0.028544936329126358,
        0.0,
        0.0,
        0.0,
        0.0,
        0.04523581218853323,
        0.01993697943099272,
        0.0,
        0.0,
        -0.022197588840993047,
        0.05036499953892183,
        0.0,
        -0.0043908944353461266,
        -0.010717257857322693,
        -0.13106977939605713,
        1.0
      ],
      "name": "Mag_5"
    },
    {
      "mesh": 5,
      "name": "Object_12"
    },
    {
      "children": [
        14
      ],
      "matrix": [
        -0.021724507212638855,
        -0.0,
        -0.0,
        -0.0,
        -0.0,
        -0.0,
        -0.08778323233127594,
        -0.0,
        -0.0,
        0.021724507212638855,
        -0.0,
        -0.0,
        0.0,
        0.13418050110340118,
        0.18383115530014038,
        1.0
      ],
      "name": "Barrel_6"
    },
    {
      "mesh": 6,
      "name": "Object_14"
    },
    {
      "children": [
        16
      ],
      "matrix": [
        -0.012362857349216938,
        -0.0,
        -0.0,
        -0.0,
        -0.0,
        -0.0,
        -0.012362857349216938,
        -0.0,
        -0.0,
        0.012362857349216938,
        -0.0,
        -0.0,
        0.0,
        0.0515638031065464,
        0.219282865524292,
        1.0
      ],
      "name": "Laser_7"
    },
    {
      "mesh": 7,
      "name": "Object_16"
    }
  ],
  "scene": 0,
  "scenes": [
    {
      "name": "Sketchfab_Scene",
      "nodes": [
        0
      ]
    }
  ]
}
